<svg id="visual" viewBox="0 0 900 600" width="900" height="600" xmlns="http://www.w3.org/2000/svg" xmlns:xlink="http://www.w3.org/1999/xlink" version="1.1"><path d="M0 360L21.5 373.2C43 386.3 86 412.7 128.8 411.8C171.7 411 214.3 383 257.2 381.3C300 379.7 343 404.3 385.8 418.7C428.7 433 471.3 437 514.2 436.2C557 435.3 600 429.7 642.8 416.8C685.7 404 728.3 384 771.2 387C814 390 857 416 878.5 429L900 442L900 601L878.5 601C857 601 814 601 771.2 601C728.3 601 685.7 601 642.8 601C600 601 557 601 514.2 601C471.3 601 428.7 601 385.8 601C343 601 300 601 257.2 601C214.3 601 171.7 601 128.8 601C86 601 43 601 21.5 601L0 601Z" fill="#88a9e2"></path><path d="M0 459L21.5 450.8C43 442.7 86 426.3 128.8 418C171.7 409.7 214.3 409.3 257.2 418.2C300 427 343 445 385.8 448.7C428.7 452.3 471.3 441.7 514.2 442.3C557 443 600 455 642.8 455.2C685.7 455.3 728.3 443.7 771.2 438.2C814 432.7 857 433.3 878.5 433.7L900 434L900 601L878.5 601C857 601 814 601 771.2 601C728.3 601 685.7 601 642.8 601C600 601 557 601 514.2 601C471.3 601 428.7 601 385.8 601C343 601 300 601 257.2 601C214.3 601 171.7 601 128.8 601C86 601 43 601 21.5 601L0 601Z" fill="#6f99e7"></path><path d="M0 478L21.5 481.8C43 485.7 86 493.3 128.8 487.8C171.7 482.3 214.3 463.7 257.2 454.8C300 446 343 447 385.8 457C428.7 467 471.3 486 514.2 486.5C557 487 600 469 642.8 468C685.7 467 728.3 483 771.2 484C814 485 857 471 878.5 464L900 457L900 601L878.5 601C857 601 814 601 771.2 601C728.3 601 685.7 601 642.8 601C600 601 557 601 514.2 601C471.3 601 428.7 601 385.8 601C343 601 300 601 257.2 601C214.3 601 171.7 601 128.8 601C86 601 43 601 21.5 601L0 601Z" fill="#5688ea"></path><path d="M0 528L21.5 523C43 518 86 508 128.8 509C171.7 510 214.3 522 257.2 526.5C300 531 343 528 385.8 525C428.7 522 471.3 519 514.2 521.8C557 524.7 600 533.3 642.8 532.2C685.7 531 728.3 520 771.2 511.2C814 502.3 857 495.7 878.5 492.3L900 489L900 601L878.5 601C857 601 814 601 771.2 601C728.3 601 685.7 601 642.8 601C600 601 557 601 514.2 601C471.3 601 428.7 601 385.8 601C343 601 300 601 257.2 601C214.3 601 171.7 601 128.8 601C86 601 43 601 21.5 601L0 601Z" fill="#3d76eb"></path><path d="M0 556L21.5 557.8C43 559.7 86 563.3 128.8 560.3C171.7 557.3 214.3 547.7 257.2 542.5C300 537.3 343 536.7 385.8 540.2C428.7 543.7 471.3 551.3 514.2 553.7C557 556 600 553 642.8 552.8C685.7 552.7 728.3 555.3 771.2 557.7C814 560 857 562 878.5 563L900 564L900 601L878.5 601C857 601 814 601 771.2 601C728.3 601 685.7 601 642.8 601C600 601 557 601 514.2 601C471.3 601 428.7 601 385.8 601C343 601 300 601 257.2 601C214.3 601 171.7 601 128.8 601C86 601 43 601 21.5 601L0 601Z" fill="#2563eb"></path></svg>